<?xml version="1.0" encoding="UTF-8"?>
<!DOCTYPE svg PUBLIC "-//W3C//DTD SVG 1.1//EN" "http://www.w3.org/Graphics/SVG/1.1/DTD/svg11.dtd">
<!-- Creator: CorelDRAW 2020 (64-Bit) -->
<svg xmlns="http://www.w3.org/2000/svg" xml:space="preserve" width="32.9304mm" height="52.2807mm" version="1.1" style="shape-rendering:geometricPrecision; text-rendering:geometricPrecision; image-rendering:optimizeQuality; fill-rule:evenodd; clip-rule:evenodd"
viewBox="0 0 177.19 281.3"
 xmlns:xlink="http://www.w3.org/1999/xlink"
 xmlns:xodm="http://www.corel.com/coreldraw/odm/2003">
 <defs>
  <style type="text/css">
   <![CDATA[
    .fil12 {fill:white}
    .fil14 {fill:#05980E;fill-rule:nonzero}
    .fil10 {fill:#404040;fill-rule:nonzero}
    .fil1 {fill:#494949;fill-rule:nonzero}
    .fil2 {fill:#575756;fill-rule:nonzero}
    .fil11 {fill:#5F5F5E;fill-rule:nonzero}
    .fil0 {fill:#706F6F;fill-rule:nonzero}
    .fil9 {fill:#727271;fill-rule:nonzero}
    .fil3 {fill:#878787;fill-rule:nonzero}
    .fil13 {fill:#99FE03;fill-rule:nonzero}
    .fil4 {fill:#B2B2B2;fill-rule:nonzero}
    .fil6 {fill:#C6C6C6;fill-rule:nonzero}
    .fil8 {fill:#DADADA;fill-rule:nonzero}
    .fil7 {fill:#EDEDED;fill-rule:nonzero}
    .fil5 {fill:white;fill-rule:nonzero}
    .fil15 {fill:white;fill-rule:nonzero}
    .filp {fill:#B2B2B2;fill-rule:nonzero}
    .fil13, .fil14, .fil15{
        animation: moveUpDown 2s infinite;
    }

    @keyframes moveUpDown {
        0%, 100% {
            transform: translateY(0);
        }
        50% {
            transform: translateY(-45px);
        }
    }
   ]]>
  </style>
 </defs>
 <g id="Capa_x0020_1">
  <metadata id="CorelCorpID_0Corel-Layer"/>
  <g id="_2959889941936">
   <polygon class="fil0" points="49.5,252.67 40.72,247.6 40.77,247.6 118.95,202.47 127.7,207.52 131.05,205.59 177.19,232.22 92.18,281.3 46.02,254.65 46.07,254.65 "/>
   <polygon class="fil1" points="118.95,202.47 40.77,247.6 40.72,247.6 9.66,229.66 63.74,198.44 87.84,184.52 118.91,202.44 "/>
   <polygon class="fil2" points="118.97,202.45 118.95,202.47 50.47,242 47.07,243.96 43.65,245.94 40.77,247.6 40.72,247.6 32.93,247.03 6.27,231.64 5.94,231.44 6.27,231.25 9.67,229.28 23.83,221.1 27.23,219.14 63.16,198.4 63.74,198.44 118.91,202.44 "/>
   <polygon class="fil3" points="84.44,139.39 87.84,141.35 91.26,139.38 87.86,137.42 "/>
   <polygon class="fil4" points="87.84,141.35 87.84,184.52 91.26,182.55 91.26,139.38 "/>
   <polygon class="fil0" points="87.84,141.35 87.84,184.52 84.44,182.56 84.44,139.39 "/>
   <polygon class="fil3" points="47.05,183.48 50.46,185.44 50.46,206.11 47.05,204.15 "/>
   <polygon class="fil4" points="50.46,185.44 87.84,163.86 87.84,184.52 50.46,206.11 "/>
   <polygon class="fil3" points="50.46,185.44 87.84,163.86 84.44,161.89 47.05,183.48 "/>
   <polygon class="fil3" points="43.64,162.94 47.04,164.91 50.46,162.94 47.06,160.97 "/>
   <polygon class="fil4" points="47.04,164.91 47.04,208.08 50.46,206.11 50.46,162.94 "/>
   <polygon class="fil2" points="47.04,164.91 47.04,208.08 43.64,206.12 43.64,162.94 "/>
   <polygon class="fil3" points="6.25,207.04 9.66,209 9.66,229.67 6.25,227.7 "/>
   <polygon class="fil4" points="9.66,209 47.04,187.41 47.04,208.08 9.66,229.67 "/>
   <polygon class="fil3" points="9.66,209 47.04,187.41 43.64,185.45 6.25,207.04 "/>
   <polygon class="fil5" points="84.44,192.34 87.84,194.3 91.25,192.33 87.85,190.37 "/>
   <polygon class="fil3" points="91.25,192.33 91.25,229.6 87.83,231.58 87.83,194.3 "/>
   <polygon class="fil1" points="87.84,194.3 87.84,231.58 84.44,229.61 84.44,192.34 "/>
   <polygon class="fil0" points="6.27,188.47 6.27,231.64 5.94,231.44 2.85,229.66 2.85,186.49 "/>
   <polygon class="fil3" points="6.27,188.47 6.27,231.64 9.67,229.67 9.67,186.5 "/>
   <polygon class="fil0" points="43.65,232.56 47.07,255.19 32.93,247.03 2.85,229.66 6.27,210.97 9.67,212.93 23.83,221.1 24.15,221.29 "/>
   <polygon class="fil3" points="43.66,232.56 6.27,210.97 9.67,209.01 47.06,230.59 "/>
   <polygon class="fil0" points="47.07,212.03 47.07,255.2 43.65,253.22 43.65,210.06 "/>
   <polygon class="fil3" points="50.47,210.06 50.47,253.23 47.07,255.2 47.07,212.03 "/>
   <polygon class="fil1" points="125.26,185.44 87.87,163.86 87.87,186.3 128.68,208.08 "/>
   <polygon class="fil3" points="125.26,185.44 87.87,163.86 91.27,161.89 128.66,183.48 "/>
   <polygon class="fil1" points="128.67,164.91 128.67,208.08 125.26,206.11 125.26,162.94 "/>
   <polygon class="fil3" points="132.07,162.94 132.07,206.11 128.68,208.08 128.68,164.91 "/>
   <g>
    <g>
     <polygon class="fil6" points="129.37,205.03 129.37,207.67 171.27,232.01 171.27,229.37 "/>
     <polygon class="fil7" points="129.37,205.03 131.66,203.71 173.56,228.05 171.27,229.37 "/>
    </g>
    <polygon class="fil8" points="173.58,228.01 173.58,230.65 171.29,231.98 171.29,229.33 "/>
   </g>
   <path class="fil9" d="M50.47 222.58l0 -4.36c-1.39,0.8 -2.55,1.47 -3.4,1.96l0 4.36 3.4 -1.96z"/>
   <path class="fil9" d="M87.84 201.01l0 -4.37c1.57,-0.91 2.53,-1.46 2.63,-1.52l0 -0c0.21,-0.12 0.47,-0.27 0.78,-0.45l0 4.37 -3.42 1.97z"/>
   <path class="fil10" d="M87.83 201.01l0 -4.37c0,0 0,-0 0,-0l0 4.37 -0 0z"/>
   <path class="fil9" d="M128.68 177.44l0 -4.38c1.3,-0.75 2.45,-1.42 3.39,-1.96l0 4.38 -3.39 1.96z"/>
   <polygon class="fil11" points="6.27,201.04 6.27,201.04 6.27,201.03 "/>
   <polygon class="fil9" points="6.27,201.04 6.27,201.04 6.27,201.03 6.27,201.03 "/>
   <path class="fil11" d="M6.26 201.03l-3.41 -1.97 0 -3.22c0.95,0.55 2.1,1.22 3.41,1.97l0 3.22z"/>
   <path class="fil11" d="M6.26 201.04l0 -3.22c0,0 0.01,0 0.01,0.01l0 3.21 -0 0 -0.01 0z"/>
   <path class="fil9" d="M6.27 201.03l0 -3.21c0.86,0.5 1.8,1.04 2.78,1.61l-2.78 1.6 -0 0z"/>
   <path class="fil11" d="M47.07 224.59l-3.42 -1.97 0 -3.21c1.26,0.72 2.08,1.2 2.33,1.35l0 0 0.05 0.03c0.26,-0.15 0.61,-0.35 1.04,-0.6l0 4.41z"/>
   <polygon class="fil9" points="47.07,224.59 47.07,220.18 "/>
   <path class="fil0" d="M46.04 220.78l-0.05 -0.03c-2.09,-1.21 -43.26,-24.98 -45.99,-26.55l0 -10.89 44.43 -14.77c0,0 6.78,49.26 1.61,52.24z"/>
   <path class="fil3" d="M134.9 158.57l0 10.89c-0.72,0.41 -39.26,22.68 -44.43,25.66l-0.05 -0.03c-2.09,-1.21 -43.26,-24.98 -45.99,-26.55l0 -10.89 44.43 -14.78 46.04 15.69z"/>
   <polygon class="fil4" points="134.9,158.57 90.47,184.23 44.43,157.65 88.86,131.99 "/>
   <path class="fil3" d="M90.47 184.23l0 10.89c-0.72,0.41 -39.26,22.68 -44.43,25.66l-0.05 -0.03c0.05,-10.86 0.05,-10.86 0.05,-10.86l-1.61 -41.35 46.04 15.69z"/>
   <polygon class="fil4" points="90.47,184.23 46.04,209.89 -0,183.32 44.43,157.66 "/>
   <polygon class="fil12" points="84.46,254.87 73.27,248.41 81.85,243.46 93.04,249.92 96.41,247.98 102.4,260.88 80.05,257.42 "/>
   <g>
    <g>
     <polygon class="fil6" points="88.4,228.32 88.4,230.97 130.31,255.31 130.31,252.66 "/>
     <polygon class="fil7" points="88.4,228.32 90.69,227 132.59,251.34 130.31,252.66 "/>
    </g>
    <polygon class="fil8" points="132.62,251.3 132.62,253.95 130.33,255.27 130.33,252.63 "/>
   </g>
   <g>
    <g>
     <polygon class="fil6" points="47.85,252.01 47.85,254.66 89.75,279 89.75,276.35 "/>
     <polygon class="fil7" points="47.85,252.01 50.14,250.69 92.04,275.03 89.75,276.35 "/>
    </g>
    <polygon class="fil8" points="92.06,274.99 92.06,277.64 89.77,278.96 89.77,276.32 "/>
   </g>
   <polygon class="fil12" points="137.59,227.68 147.95,233.66 140.01,238.24 129.66,232.26 126.53,234.06 120.99,222.12 141.68,225.32 "/>
  </g>
  <g id="_2959889970496">
   <g>
    <polygon class="filp" points="28.76,166.71 84.06,185.5 46.58,156.35 "/>
    <path class="fil13" d="M129.71 48.1c0.08,29.17 -43.36,132 -45.65,137.41 -2.31,-2.76 -46.19,-55.17 -46.28,-84.33 -0.08,-29.17 20.44,-64.69 45.81,-79.35 25.38,-14.65 46.03,-2.89 46.11,26.28z"/>
    <path class="fil14" d="M56.89 6.3c12.77,-7.38 24.35,-8.06 32.7,-3.2 8.9,5.17 17.8,10.34 26.7,15.52 -8.36,-4.86 -19.93,-4.17 -32.7,3.2 -25.38,14.65 -45.89,50.18 -45.81,79.35 0.09,29.16 43.97,81.58 46.28,84.33l-26.7 -15.52c-2.31,-2.76 -46.19,-55.17 -46.28,-84.34 -0.08,-29.16 20.44,-64.69 45.81,-79.35z"/>
   </g>
   <path class="fil15" d="M69.07 59.76c5.27,-3.06 10.54,-6.12 15.85,-9.18 4.28,-2.47 7.61,-4.08 9.9,-4.75 2.34,-0.68 4.05,-0.76 5.22,-0.22 1.17,0.54 1.96,1.58 2.39,3.06 0.43,1.51 0.63,4.07 0.63,7.72 0,1.68 -0,3.38 -0,5.07 -0,3.72 -0.41,6.67 -1.22,8.83 -0.81,2.18 -2.24,4.35 -4.37,6.48 -2.15,2.16 -4.95,4.22 -8.37,6.2 -1.44,0.83 -2.84,1.64 -4.23,2.44 -0,3.92 -0,7.86 -0,11.77 -0,3.91 -0,7.83 -0,11.74 -5.31,3.06 -10.58,6.1 -15.8,9.13 0,-9.71 0,-19.43 0,-29.14 0,-9.72 0,-19.44 0,-29.15zm15.76 0.81c-0,4.96 -0,9.9 -0,14.85 0.41,-0.21 0.81,-0.43 1.13,-0.61 1.44,-0.83 2.48,-1.78 3.02,-2.77 0.54,-1 0.86,-2.6 0.86,-4.76 0,-1.6 0,-3.19 0,-4.8 0,-2 -0.36,-3.09 -0.99,-3.33 -0.63,-0.24 -1.98,0.25 -4.01,1.42z"/>
  </g>
 </g>
</svg>
