<?xml version="1.0" encoding="UTF-8"?>
<!DOCTYPE svg PUBLIC "-//W3C//DTD SVG 1.1//EN" "http://www.w3.org/Graphics/SVG/1.1/DTD/svg11.dtd">
<!-- Creator: CorelDRAW 2020 (64-Bit) -->
<svg xmlns="http://www.w3.org/2000/svg" xml:space="preserve" width="32.9304mm" height="52.2807mm" version="1.1" style="shape-rendering:geometricPrecision; text-rendering:geometricPrecision; image-rendering:optimizeQuality; fill-rule:evenodd; clip-rule:evenodd"
viewBox="0 0 1492.73 2369.88"
 xmlns:xlink="http://www.w3.org/1999/xlink"
 xmlns:xodm="http://www.corel.com/coreldraw/odm/2003">
 <defs>
  <style type="text/css">
   <![CDATA[
    .fil15 {fill:white}
    .fil10 {fill:#404040;fill-rule:nonzero}
    .fil1 {fill:#494949;fill-rule:nonzero}
    .fil13 {fill:#550607;fill-rule:nonzero}
    .fil2 {fill:#575756;fill-rule:nonzero}
    .fil11 {fill:#5F5F5E;fill-rule:nonzero}
    .fil0 {fill:#706F6F;fill-rule:nonzero}
    .fil9 {fill:#727271;fill-rule:nonzero}
    .fil3 {fill:#878787;fill-rule:nonzero}
    .fil4 {fill:#B2B2B2;fill-rule:nonzero}
    .fil6 {fill:#C6C6C6;fill-rule:nonzero}
    .fil8 {fill:#DADADA;fill-rule:nonzero}
    .fil7 {fill:#EDEDED;fill-rule:nonzero}
    .fil12 {fill:red;fill-rule:nonzero}
    .fil5 {fill:white;fill-rule:nonzero}
    .fil14 {fill:white;fill-rule:nonzero}
   ]]>
  </style>
 </defs>
 <g id="Capa_x0020_1">
  <metadata id="CorelCorpID_0Corel-Layer"/>
  <g id="_2959854277648">
   <polygon class="fil0" points="417.04,2128.67 343.03,2085.96 343.47,2085.96 1002.07,1705.73 1075.87,1748.31 1104.06,1732.03 1492.73,1956.41 776.58,2369.88 387.68,2145.37 388.12,2145.37 "/>
   <polygon class="fil1" points="1002.07,1705.73 343.47,2085.96 343.03,2085.96 81.35,1934.83 536.96,1671.78 740.03,1554.53 1001.78,1705.51 "/>
   <polygon class="fil2" points="1002.29,1705.58 1002.07,1705.73 425.23,2038.73 396.58,2055.27 367.78,2071.96 343.47,2085.96 343.03,2085.96 277.45,2081.17 52.84,1951.46 50.01,1949.78 52.84,1948.19 81.5,1931.65 200.77,1862.72 229.42,1846.18 532.1,1671.42 536.96,1671.78 1001.78,1705.51 "/>
   <polygon class="fil3" points="711.39,1174.3 740.04,1190.85 768.81,1174.23 740.17,1157.68 "/>
   <polygon class="fil4" points="740.04,1190.85 740.04,1554.54 768.81,1537.93 768.81,1174.23 "/>
   <polygon class="fil0" points="740.04,1190.85 740.04,1554.54 711.39,1537.99 711.39,1174.3 "/>
   <polygon class="fil3" points="396.42,1545.75 425.08,1562.28 425.08,1736.39 396.42,1719.85 "/>
   <polygon class="fil4" points="425.08,1562.28 740.05,1380.44 740.04,1554.54 425.08,1736.39 "/>
   <polygon class="fil3" points="425.08,1562.28 740.05,1380.44 711.39,1363.91 396.42,1545.75 "/>
   <polygon class="fil3" points="367.67,1372.75 396.31,1389.31 425.08,1372.69 396.43,1356.14 "/>
   <polygon class="fil4" points="396.31,1389.31 396.31,1753 425.08,1736.39 425.08,1372.69 "/>
   <polygon class="fil2" points="396.31,1389.31 396.31,1753 367.66,1736.45 367.66,1372.75 "/>
   <polygon class="fil3" points="52.69,1744.22 81.34,1760.74 81.34,1934.85 52.68,1918.32 "/>
   <polygon class="fil4" points="81.34,1760.74 396.32,1578.9 396.31,1753 81.34,1934.85 "/>
   <polygon class="fil3" points="81.34,1760.74 396.32,1578.9 367.66,1562.36 52.69,1744.22 "/>
   <polygon class="fil5" points="711.34,1620.4 739.98,1636.95 768.76,1620.34 740.11,1603.79 "/>
   <polygon class="fil3" points="768.76,1620.34 768.76,1934.33 739.95,1950.94 739.95,1636.95 "/>
   <polygon class="fil1" points="739.98,1636.95 739.98,1950.96 711.34,1934.39 711.34,1620.4 "/>
   <polygon class="fil0" points="52.84,1587.76 52.84,1951.46 50.01,1949.78 24.03,1934.83 24.03,1571.15 "/>
   <polygon class="fil3" points="52.82,1587.77 52.82,1951.46 81.47,1934.9 81.47,1571.22 "/>
   <polygon class="fil0" points="367.78,1959.22 396.55,2149.92 277.45,2081.17 24.03,1934.84 52.84,1777.33 81.5,1793.87 200.77,1862.72 203.45,1864.32 "/>
   <polygon class="fil3" points="367.78,1959.21 52.81,1777.36 81.48,1760.83 396.44,1942.67 "/>
   <polygon class="fil0" points="396.58,1786.26 396.58,2149.95 367.78,2133.33 367.78,1769.65 "/>
   <polygon class="fil3" points="425.23,1769.65 425.23,2133.4 396.58,2149.95 396.58,1786.26 "/>
   <polygon class="fil1" points="1055.25,1562.28 740.28,1380.44 740.29,1569.55 1084.06,1753.03 "/>
   <polygon class="fil3" points="1055.25,1562.28 740.28,1380.44 768.94,1363.91 1083.91,1545.75 "/>
   <polygon class="fil1" points="1084.02,1389.31 1084.02,1753 1055.26,1736.39 1055.26,1372.69 "/>
   <polygon class="fil3" points="1112.64,1372.73 1112.64,1736.42 1084.06,1753.03 1084.06,1389.35 "/>
   <g>
    <g>
     <polygon class="fil6" points="1089.89,1727.32 1089.89,1749.58 1442.88,1954.64 1442.88,1932.38 "/>
     <polygon class="fil7" points="1089.89,1727.32 1109.17,1716.19 1462.16,1921.24 1442.88,1932.38 "/>
    </g>
    <polygon class="fil8" points="1462.35,1920.92 1462.35,1943.18 1443.07,1954.31 1443.07,1932.06 "/>
   </g>
   <path class="fil9" d="M425.23 1875.13l0 -36.7c-11.73,6.78 -21.48,12.4 -28.65,16.55l0 36.69 28.65 -16.54z"/>
   <path class="fil9" d="M739.98 1693.45l0 -36.8c13.22,-7.63 21.29,-12.28 22.19,-12.81l0 -0.02c1.75,-1.02 3.96,-2.29 6.58,-3.8l0 36.84 -28.77 16.6z"/>
   <path class="fil10" d="M739.95 1693.46l0 -36.8c0.01,0 0.02,-0.01 0.03,-0.02l0 36.8 -0.03 0.02z"/>
   <path class="fil9" d="M1084.06 1494.83l0 -36.92c10.97,-6.35 20.63,-11.92 28.59,-16.51l0 36.89 -28.59 16.54z"/>
   <polygon class="fil11" points="52.82,1693.68 52.79,1693.65 52.82,1693.65 "/>
   <polygon class="fil9" points="52.84,1693.69 52.82,1693.68 52.82,1693.65 52.84,1693.63 "/>
   <path class="fil11" d="M52.74 1693.63l-28.71 -16.56 0 -27.13c8.04,4.65 17.73,10.24 28.71,16.58l0 27.11z"/>
   <path class="fil11" d="M52.74 1693.69l0 -27.16c0.02,0.02 0.05,0.03 0.08,0.05l0 27.07 -0.03 0.01 -0.05 0.03z"/>
   <path class="fil9" d="M52.82 1693.65l0 -27.07c7.28,4.2 15.14,8.74 23.45,13.54l-23.44 13.52 -0.01 0.01z"/>
   <path class="fil11" d="M396.58 1892.11l-28.8 -16.61 0 -27.08c10.58,6.11 17.52,10.11 19.65,11.33l0 0 0.43 0.26c2.21,-1.27 5.15,-2.97 8.73,-5.03l0 37.13z"/>
   <polygon class="fil9" points="396.58,1892.11 396.58,1854.98 "/>
   <path class="fil0" d="M387.85 1860.01l-0.43 -0.26c-17.63,-10.15 -364.45,-210.42 -387.41,-223.67l0 -91.72 374.29 -124.47c0,0 57.11,414.97 13.55,440.11z"/>
   <path class="fil3" d="M1136.47 1335.93l0 91.72c-6.03,3.48 -330.77,191.03 -374.32,216.19l-0.43 -0.27c-17.63,-10.16 -364.46,-210.43 -387.42,-223.67l0 -91.72 374.29 -124.48 387.87 132.22z"/>
   <polygon class="fil4" points="1136.47,1335.93 762.15,1552.11 374.29,1328.19 748.61,1112.01 "/>
   <path class="fil3" d="M762.18 1552.11l0 91.73c-6.03,3.48 -330.77,191.03 -374.33,216.17l-0.43 -0.26c0.44,-91.46 0.44,-91.46 0.44,-91.46l-13.56 -348.4 387.87 132.21z"/>
   <polygon class="fil4" points="762.18,1552.12 387.86,1768.29 -0,1544.38 374.32,1328.2 "/>
   <g>
    <g>
     <polygon class="fil1" points="242.31,1404.45 708.17,1562.8 392.39,1317.23 "/>
     <path class="fil12" d="M1092.72 405.19c0.68,245.71 -365.3,1112.02 -384.55,1157.61 -19.46,-23.25 -389.15,-464.83 -389.86,-710.49 -0.67,-245.71 172.16,-545.03 385.97,-668.48 213.81,-123.44 387.76,-24.33 388.45,221.36z"/>
     <path class="fil13" d="M479.29 53.1c107.61,-62.13 205.1,-67.88 275.52,-26.94 74.96,43.57 149.95,87.12 224.93,130.71 -70.39,-40.91 -167.88,-35.16 -275.47,26.96 -213.81,123.45 -386.64,422.77 -385.97,668.48 0.72,245.67 370.4,687.25 389.86,710.49l-224.96 -130.74c-19.48,-23.22 -389.17,-464.8 -389.89,-710.5 -0.69,-245.68 172.16,-545.02 385.97,-668.47z"/>
    </g>
    <path class="fil14" d="M581.87 503.43c44.37,-25.78 88.76,-51.56 133.5,-77.37 36.04,-20.79 64.09,-34.34 83.44,-39.99 19.71,-5.75 34.15,-6.41 43.99,-1.86 9.88,4.57 16.53,13.33 20.09,25.77 3.64,12.71 5.3,34.31 5.29,65.08 0,14.18 -0,28.47 -0.01,42.7 -0,31.32 -3.45,56.2 -10.25,74.39 -6.85,18.33 -18.91,36.66 -36.79,54.57 -18.15,18.19 -41.72,35.57 -70.53,52.22 -12.13,7 -23.89,13.79 -35.64,20.58 -0,33.06 -0.01,66.18 -0.01,99.13 -0,32.95 -0.01,65.96 -0.01,98.91 -44.74,25.81 -89.1,51.38 -133.08,76.96 0,-81.76 0,-163.69 0,-245.51 0,-81.93 0,-163.8 0,-245.57zm132.74 6.79c-0,41.74 -0.01,83.44 -0.01,125.13 3.41,-1.75 6.83,-3.61 9.48,-5.14 12.13,-7 20.86,-14.95 25.41,-23.35 4.55,-8.4 7.21,-21.93 7.21,-40.14 0,-13.5 0,-26.9 0,-40.4 0,-16.81 -3.02,-26.07 -8.34,-28.08 -5.29,-2 -16.68,2.13 -33.75,11.98z"/>
   </g>
   <polygon class="fil15" points="711.56,2147.23 617.26,2092.79 689.52,2051.08 783.81,2105.52 812.22,2089.11 862.66,2197.8 674.4,2168.68 "/>
   <g>
    <g>
     <polygon class="fil6" points="744.78,1923.56 744.78,1945.82 1097.78,2150.87 1097.78,2128.62 "/>
     <polygon class="fil7" points="744.78,1923.56 764.06,1912.43 1117.06,2117.48 1097.78,2128.62 "/>
    </g>
    <polygon class="fil8" points="1117.24,2117.16 1117.24,2139.42 1097.96,2150.55 1097.96,2128.3 "/>
   </g>
   <g>
    <g>
     <polygon class="fil6" points="403.12,2123.14 403.12,2145.4 756.12,2350.45 756.12,2328.2 "/>
     <polygon class="fil7" points="403.12,2123.14 422.4,2112 775.4,2317.06 756.12,2328.2 "/>
    </g>
    <polygon class="fil8" points="775.58,2316.74 775.58,2339 756.3,2350.13 756.3,2327.87 "/>
   </g>
   <polygon class="fil15" points="1159.18,1918.09 1246.46,1968.48 1179.57,2007.08 1092.3,1956.7 1066.01,1971.88 1019.32,1871.27 1193.57,1898.23 "/>
  </g>
 </g>
</svg>
