<?xml version="1.0" encoding="UTF-8"?>
<!DOCTYPE svg PUBLIC "-//W3C//DTD SVG 1.1//EN" "http://www.w3.org/Graphics/SVG/1.1/DTD/svg11.dtd">
<!-- Creator: CorelDRAW 2020 (64-Bit) -->
<svg xmlns="http://www.w3.org/2000/svg" xml:space="preserve" width="46.4793mm" height="48.1439mm" version="1.1" style="shape-rendering:geometricPrecision; text-rendering:geometricPrecision; image-rendering:optimizeQuality; fill-rule:evenodd; clip-rule:evenodd"
viewBox="0 0 23.96 24.82"
 xmlns:xlink="http://www.w3.org/1999/xlink"
 xmlns:xodm="http://www.corel.com/coreldraw/odm/2003">
 <defs>
  <style type="text/css">
   <![CDATA[
    .fil0 {fill:#00B099;fill-rule:nonzero}
   ]]>
  </style>
 </defs>
 <g id="Capa_x0020_1">
  <metadata id="CorelCorpID_0Corel-Layer"/>
  <path class="fil0" d="M4.07 9.44l0.36 0 0 -1.89c0,-2.08 0.85,-3.97 2.22,-5.33 1.37,-1.37 3.26,-2.22 5.33,-2.22 2.08,0 3.97,0.85 5.34,2.22 1.37,1.37 2.22,3.26 2.22,5.33l0 1.89 0.36 0c1.12,0 2.14,0.46 2.87,1.2 0.74,0.74 1.2,1.76 1.2,2.87l0 7.24c0,1.12 -0.46,2.14 -1.2,2.87 -0.74,0.74 -1.76,1.2 -2.87,1.2l-15.82 0c-1.12,0 -2.14,-0.46 -2.87,-1.19 -0.74,-0.74 -1.19,-1.76 -1.19,-2.87l0 -7.24c0,-1.12 0.46,-2.14 1.19,-2.87l0.04 -0.04c0.73,-0.72 1.73,-1.16 2.83,-1.16zm7.91 4.24c0.95,0 1.81,0.39 2.44,1.01l0 0c0.62,0.62 1.01,1.49 1.01,2.43 0,0.95 -0.39,1.81 -1.01,2.44l-0 0c-0.62,0.62 -1.49,1.01 -2.43,1.01 -0.95,0 -1.81,-0.39 -2.44,-1.01l-0 -0c-0.62,-0.62 -1.01,-1.49 -1.01,-2.43 0,-0.95 0.39,-1.81 1.01,-2.44l0 -0c0.62,-0.62 1.49,-1.01 2.43,-1.01zm1.49 1.96c-0.38,-0.38 -0.91,-0.61 -1.49,-0.61 -0.58,0 -1.11,0.23 -1.49,0.61 -0.38,0.38 -0.62,0.91 -0.62,1.49 0,0.58 0.23,1.11 0.61,1.49 0.38,0.38 0.91,0.62 1.49,0.62 0.58,0 1.11,-0.23 1.49,-0.61 0.38,-0.38 0.62,-0.91 0.62,-1.49 0,-0.58 -0.23,-1.11 -0.61,-1.49zm-7.69 -6.2l12.41 0 0 -1.89c0,-1.71 -0.7,-3.26 -1.82,-4.38 -1.12,-1.12 -2.68,-1.82 -4.38,-1.82 -1.71,0 -3.26,0.7 -4.38,1.82 -1.12,1.12 -1.82,2.68 -1.82,4.38l0 1.89zm14.12 1.35l-15.82 0c-0.73,0 -1.4,0.29 -1.89,0.77l-0.03 0.03c-0.49,0.49 -0.8,1.18 -0.8,1.92l0 7.24c0,0.75 0.31,1.43 0.8,1.92 0.49,0.49 1.17,0.8 1.92,0.8l15.82 0c0.75,0 1.43,-0.31 1.92,-0.8 0.49,-0.49 0.8,-1.17 0.8,-1.92l0 -7.24c0,-0.75 -0.31,-1.43 -0.8,-1.92 -0.49,-0.49 -1.18,-0.8 -1.92,-0.8z"/>
 </g>
</svg>
