<?xml version="1.0" encoding="UTF-8"?>
<!DOCTYPE svg PUBLIC "-//W3C//DTD SVG 1.1//EN" "http://www.w3.org/Graphics/SVG/1.1/DTD/svg11.dtd">
<!-- Creator: CorelDRAW 2020 (64-Bit) -->
<svg xmlns="http://www.w3.org/2000/svg" xml:space="preserve" width="46.4793mm" height="42.1722mm" version="1.1" style="shape-rendering:geometricPrecision; text-rendering:geometricPrecision; image-rendering:optimizeQuality; fill-rule:evenodd; clip-rule:evenodd"
viewBox="0 0 23.96 21.74"
 xmlns:xlink="http://www.w3.org/1999/xlink"
 xmlns:xodm="http://www.corel.com/coreldraw/odm/2003">
 <defs>
  <style type="text/css">
   <![CDATA[
    .fil0 {fill:#00B099;fill-rule:nonzero}
   ]]>
  </style>
 </defs>
 <g id="Capa_x0020_1">
  <metadata id="CorelCorpID_0Corel-Layer"/>
  <path class="fil0" d="M5.61 0l12.74 0c1.54,0 2.95,0.63 3.96,1.65 1.02,1.02 1.65,2.42 1.65,3.96l0 10.52c0,1.54 -0.63,2.95 -1.65,3.96l-0.04 0.04c-1.01,1 -2.4,1.61 -3.92,1.61l-12.74 0c-1.54,0 -2.94,-0.63 -3.96,-1.65l-0 -0c-1.02,-1.02 -1.65,-2.42 -1.65,-3.96l0 -10.52c0,-1.54 0.63,-2.94 1.65,-3.96 1.01,-1.02 2.42,-1.65 3.96,-1.65zm0.04 7.2c-0.27,-0.25 -0.3,-0.67 -0.05,-0.95 0.25,-0.27 0.67,-0.3 0.95,-0.05l3.71 3.36c0.53,0.48 1.19,0.72 1.86,0.72 0.67,0 1.33,-0.24 1.86,-0.72l3.71 -3.36c0.27,-0.25 0.7,-0.23 0.95,0.05 0.25,0.27 0.23,0.7 -0.05,0.95l-3.71 3.36c-0.79,0.71 -1.77,1.07 -2.76,1.07 -0.98,0 -1.97,-0.36 -2.76,-1.07l-3.71 -3.36zm12.7 -5.85l-12.74 0c-1.17,0 -2.24,0.48 -3.01,1.25 -0.77,0.77 -1.25,1.84 -1.25,3.01l0 10.52c0,1.17 0.48,2.24 1.25,3.01 0.77,0.77 1.84,1.25 3.01,1.25l12.74 0c1.16,0 2.21,-0.47 2.98,-1.22l0.03 -0.03c0.77,-0.77 1.25,-1.84 1.25,-3.01l0 -10.52c0,-1.17 -0.48,-2.24 -1.25,-3.01 -0.77,-0.77 -1.84,-1.25 -3.01,-1.25z"/>
 </g>
</svg>
